<svg width="242" height="70" viewBox="0 0 242 70" fill="none" xmlns="http://www.w3.org/2000/svg">
<path d="M241.673 0.224609H0.326538V69.7753H241.673V0.224609Z" fill="#E60012"/>
<path d="M105.531 22.8617C101.811 22.8617 97.5814 24.5858 94.9969 28.0377L94.9986 28.0307L94.9969 28.0324L94.9986 23.4038H86.1278V55.7081H94.9969V37.3264C94.9969 34.018 97.5621 30.5015 102.311 30.5015C105.982 30.5015 109.78 33.0545 109.78 37.3264V55.7081H118.651V35.6827C118.651 28.2527 113.335 22.8617 105.531 22.8617Z" fill="white"/>
<path d="M181.697 23.4052L173.678 45.41L165.659 23.4052H155.526L168.817 55.699H178.538L191.829 23.4052H181.697Z" fill="white"/>
<path d="M59.6455 33.1368C61.1563 31.1084 63.5624 29.9176 66.4686 29.9176C69.6651 29.9176 72.0905 31.7432 73.3443 34.4378L57.8461 40.8676C57.4229 37.5679 58.2675 34.9869 59.6455 33.1368ZM76.6877 45.776C72.9543 48.5388 70.821 49.1981 67.4164 49.1981C64.3528 49.1981 61.9537 48.2468 60.2627 46.5786L82.9408 37.1709C82.4459 33.6649 81.1152 30.5331 79.0676 28.1515C76.0879 24.6909 71.6778 22.8601 66.3078 22.8601C56.5539 22.8601 49.1991 30.0557 49.1991 39.5596C49.1991 49.31 56.5713 56.2573 67.2852 56.2573C73.2883 56.2573 79.426 53.4123 82.2973 50.0881L76.6877 45.776Z" fill="white"/>
<path d="M48.3536 47.5629H28.1918V13.7426H19.2003V55.7081H48.3536V47.5629Z" fill="white"/>
<path d="M207.758 30.4616C202.804 30.4616 199.207 34.2159 199.207 39.5562C199.207 44.6552 203.017 48.6509 207.876 48.6509C212.832 48.6509 216.427 44.7934 216.427 39.5562C216.427 34.4572 212.619 30.4616 207.758 30.4616ZM207.758 56.2522C198.056 56.2522 190.455 49.0251 190.455 39.5562C190.455 30.194 198.109 22.8602 207.876 22.8602C217.578 22.8602 225.178 30.0873 225.178 39.5562C225.178 48.9167 217.525 56.2522 207.758 56.2522Z" fill="white"/>
<path d="M139.461 30.4616C134.507 30.4616 130.912 34.2159 130.912 39.5562C130.912 44.6552 134.72 48.6509 139.582 48.6509C144.536 48.6509 148.131 44.7934 148.131 39.5562C148.131 34.4572 144.322 30.4616 139.461 30.4616ZM139.461 56.2522C129.76 56.2522 122.16 49.0251 122.16 39.5562C122.16 30.194 129.812 22.8602 139.582 22.8602C149.281 22.8602 156.883 30.0873 156.883 39.5562C156.883 48.9167 149.229 56.2522 139.461 56.2522Z" fill="white"/>
</svg>
