<svg width="270" height="42" viewBox="0 0 270 42" fill="none" xmlns="http://www.w3.org/2000/svg">
<g clip-path="url(#clip0_9_186)">
<path d="M223.828 31.8589H223.621L214.808 1.07861H200.591V39.8828H210.009L209.478 8.03916H209.685L219.149 39.8828H232.789V1.0767H223.309L223.828 31.8589ZM42.9567 1.0767L35.8644 40.2913H46.2138L51.4579 4.69634H51.6765L56.7818 40.2933H67.0703L60.0104 1.0767H42.9567ZM100.847 1.08052L96.1162 31.0628H95.9014L91.1935 1.08052H75.5696L74.7216 40.2913H84.3009L84.5405 5.02852H84.7572L91.1555 40.2913H100.872L107.272 5.03998L107.485 5.02852L107.734 40.2913H117.317L116.471 1.08052H100.847ZM12.131 11.1643C11.9504 10.3625 11.9941 9.56071 12.0911 9.1178C12.3668 7.8578 13.1958 6.47752 15.5935 6.47752C17.841 6.47752 19.1491 7.9017 19.1491 10.0284V12.4511H28.7151V9.71343C28.7151 1.1588 21.2198 -0.175659 15.7931 -0.175659C8.9842 -0.175659 3.42449 2.14007 2.39963 8.53743C2.12012 10.2556 2.08589 11.8306 2.4928 13.8161C4.15653 21.8304 17.7649 24.1519 19.7405 29.2205C20.1112 30.1655 19.9915 31.3912 19.8089 32.1319C19.499 33.4148 18.6377 34.7492 16.0803 34.7492C13.6883 34.7492 12.228 33.3461 12.228 31.206L12.2223 27.4012H1.95089L1.94519 30.4328C1.94519 39.1802 8.66857 41.8091 15.8692 41.8091C22.8093 41.8091 28.4984 39.4074 29.4186 32.8612C29.8864 29.4668 29.5422 27.2408 29.3768 26.4103C27.7549 18.1955 13.2243 15.7672 12.131 11.1643ZM136.768 11.256C136.58 10.4733 136.633 9.67907 136.723 9.2457C136.991 7.99334 137.812 6.62834 140.189 6.62834C142.41 6.62834 143.714 8.03152 143.714 10.1296V12.5351H153.178V9.82225C153.178 1.37261 145.751 0.0419772 140.394 0.0419772C133.644 0.0419772 128.132 2.30616 127.13 8.66343C126.851 10.374 126.807 11.9375 127.218 13.8943C128.866 21.8247 142.339 24.129 144.3 29.1423C144.657 30.0873 144.549 31.2919 144.374 32.0269C144.062 33.3193 143.201 34.6137 140.68 34.6137C138.299 34.6137 136.865 33.2315 136.865 31.1143L136.858 27.3382H126.678V30.3431C126.678 39.0008 133.342 41.5991 140.472 41.5991C147.327 41.5991 152.968 39.2184 153.872 32.7409C154.335 29.3904 153.993 27.1835 153.832 26.3569C152.225 18.2299 137.833 15.8149 136.768 11.256ZM180.214 30.0777C180.221 30.576 180.206 31.1525 180.124 31.5725C179.934 32.5481 179.115 34.3942 176.451 34.3942C173.796 34.3942 172.967 32.5481 172.777 31.5725C172.695 31.1525 172.676 30.576 172.68 30.0777V1.07289H162.998V29.1785C162.983 29.9059 163.053 31.3778 163.088 31.7692C163.746 39.0791 169.404 41.4406 176.449 41.4406C183.486 41.4406 189.143 39.0791 189.821 31.7692C189.856 31.3778 189.93 29.904 189.918 29.1785V1.07289H180.212V30.0777H180.214ZM256.441 18.2452V23.9877H260.364V29.6749C260.375 30.1693 260.356 30.7153 260.274 31.164C260.103 32.2197 259.126 34.0009 256.363 34.0009C253.593 34.0009 252.619 32.2178 252.441 31.164C252.366 30.7153 252.344 30.1693 252.355 29.6749V11.7333C252.355 11.0956 252.395 10.3988 252.511 9.89289C252.714 8.92689 253.54 7.04643 256.325 7.04643C259.255 7.04643 259.98 9.03189 260.155 9.89289C260.267 10.437 260.274 11.3743 260.274 11.3705V13.5793H269.93V12.2697C269.926 12.2697 269.964 10.9295 269.852 9.7058C269.143 2.33098 263.189 0.00952265 256.405 0.00952265C249.617 0.00952265 243.804 2.35007 242.962 9.7058C242.88 10.3396 242.795 11.5729 242.795 12.2697L242.791 28.7681C242.795 29.5069 242.818 30.0529 242.924 31.3587C243.555 38.4987 249.617 41.0569 256.397 41.0569C263.182 41.0569 269.243 38.4987 269.878 31.3587C269.983 30.051 269.998 29.505 270 28.7681V18.2452H256.441Z" fill="#1428A0"/>
</g>
<defs>
<clipPath id="clip0_9_186">
<rect width="270" height="42" fill="white"/>
</clipPath>
</defs>
</svg>
