<svg width="226" height="54" viewBox="0 0 226 54" fill="none" xmlns="http://www.w3.org/2000/svg">
<path d="M224.507 2.39169C223.713 1.33327 222.919 0.53946 218.95 0.274856C217.892 0.274856 214.716 0.0102539 209.16 0.0102539C194.606 0.0102539 184.551 4.50854 179.524 13.2405C180.847 4.50854 172.38 0.0102539 153.857 0.0102539C132.16 0.0102539 118.4 8.74221 112.843 26.4707C110.727 33.0858 110.727 38.3779 112.314 42.6116H107.022C103.053 42.8762 97.761 43.1408 94.3211 43.1408C86.383 43.1408 81.3555 41.8178 79.5032 39.1718C77.9156 36.7903 77.9156 32.292 80.0325 25.6769C83.4723 14.8281 91.6751 10.0652 104.905 10.0652C111.785 10.0652 118.4 10.859 118.4 10.859C119.194 10.859 119.723 9.80063 119.723 9.00682L119.459 8.213L118.929 4.50854C118.665 2.1271 116.813 0.804071 113.637 0.274867C110.727 0.0102597 108.345 0.0102539 105.17 0.0102539C105.17 0.0102539 105.17 0.0102539 104.905 0.0102539C87.706 0.0102539 75.5342 5.83156 68.9191 16.945C71.3005 5.56696 63.3624 0.0102539 45.1046 0.0102539C34.785 0.0102539 27.3761 0.274863 23.1424 0.804071C19.7026 1.33328 17.5857 2.65631 16.7919 5.03775L15.2043 9.80063C14.9397 10.5944 15.4689 11.1237 16.5273 11.1237C17.3211 11.1237 20.4964 10.5944 25.7885 10.3298C32.9328 9.80063 37.9603 9.53602 41.4002 9.53602C51.4551 9.53602 55.9534 12.1821 54.3658 17.2096C54.1012 18.268 53.3074 19.0618 51.9843 19.3264C42.4586 20.914 34.785 21.9725 29.2283 22.7663C13.3521 24.8831 4.09089 29.646 1.70945 37.5841C-1.73042 48.4329 6.73693 53.725 27.1115 53.725C37.1665 53.725 45.8984 53.1958 52.7782 51.8728C56.7472 51.079 58.8641 50.2852 59.6579 47.6391L63.3624 35.4673C63.0977 47.6391 71.3005 53.725 88.7644 53.725C96.1733 53.725 103.318 53.4604 106.758 52.9312C110.197 52.402 112.05 51.6082 112.843 48.9621L113.637 45.2577C117.342 51.079 125.544 53.9896 137.981 53.9896C151.211 53.9896 158.885 53.725 161.002 52.9312C162.854 52.402 163.912 51.3436 164.441 50.0206C164.441 49.756 164.441 49.4913 164.706 49.2267L166.294 44.1992C166.558 43.4054 166.029 42.8762 164.971 42.8762L156.503 43.4054C150.947 43.67 146.448 43.9346 143.273 43.9346C137.187 43.9346 133.218 43.4054 130.837 42.6116C127.397 41.2886 125.809 38.9072 126.074 34.9381L152.799 31.4982C164.706 29.9106 172.909 26.2061 176.878 20.3848L167.617 51.3436C167.352 51.8728 167.617 52.402 167.881 52.6666C168.146 52.9312 168.675 53.1958 169.733 53.1958H180.847C182.699 53.1958 183.493 52.1374 183.758 51.3436L193.548 17.2096C194.871 12.7113 198.84 10.5945 206.249 10.5945C212.864 10.5945 217.627 10.5945 220.802 10.8591H221.067C221.596 10.8591 222.654 10.5944 223.448 9.27142L225.036 4.50854C225.036 3.71473 225.036 2.9209 224.507 2.39169ZM46.163 43.1408C42.7232 43.67 37.6957 43.9346 31.3452 43.9346C19.9672 43.9346 15.2043 41.5532 16.5273 37.0549C17.5857 33.8797 20.4964 31.7628 25.2593 31.2336L50.9259 27.7938L46.163 43.1408ZM164.441 15.6219C163.383 19.0618 158.355 21.4432 149.359 22.7663L127.926 25.6769L128.455 23.8247C130.307 18.0034 132.689 14.2989 135.864 12.1821C139.039 10.0652 144.331 9.00682 151.74 9.00682C161.531 9.27142 165.764 11.3883 164.441 15.6219Z" fill="#83B81A"/>
</svg>
