<svg width="176" height="176" viewBox="0 0 176 176" fill="none" xmlns="http://www.w3.org/2000/svg">
<path d="M88 0.862671C40.2687 0.862671 0.862671 40.2687 0.862671 88C0.862671 135.731 39.7137 175.137 88 175.137C136.286 175.137 175.137 136.286 175.137 88C175.137 39.7137 135.731 0.862671 88 0.862671ZM88 166.257C44.7089 166.257 9.74291 131.291 9.74291 88C9.74291 44.7089 44.7089 9.7429 88 9.7429C131.291 9.7429 166.257 44.7089 166.257 88C166.257 131.291 131.291 166.257 88 166.257ZM155.712 99.6553V107.426H131.291V69.1295H140.171V99.6553H155.712ZM41.9338 106.871C50.814 106.871 58.5842 100.765 60.2493 92.4401L81.8949 109.091L103.54 92.4401V106.871H127.961V99.1003H111.866V68.5745H102.985V83.0049L82.4499 99.6553L78.0098 95.7702L88 88L98.5453 79.6748L92.4401 74.6797L71.9046 90.7751L67.4645 86.89L88 71.3496L81.8949 66.3544L60.2493 83.0049C58.0292 74.6797 50.814 68.5745 41.9338 68.5745H26.3934V106.871C26.3934 106.871 41.9338 106.871 41.9338 106.871ZM34.7186 99.6553V76.3447H41.3788C46.9289 76.3447 51.924 81.3398 51.924 88C51.924 94.1052 47.4839 99.6553 41.3788 99.6553H34.7186Z" fill="#007DB8"/>
</svg>
